<svg width="175" height="95" viewBox="0 0 175 95" fill="none" xmlns="http://www.w3.org/2000/svg">
<path d="M4 82.479V12.3822H31.1733V19.6515H13.7789V42.844H27.8848V49.7671H13.7789V75.4693H31.3464V82.479H4Z" fill="white"/>
<path d="M34.9141 82.479V12.3822H44.693V75.4693H62.6067V82.479H34.9141Z" fill="white"/>
<path d="M65.8485 82.479V12.3822H93.0218V19.6515H75.6274V42.844H89.7333V49.7671H75.6274V75.4693H93.1949V82.479H65.8485Z" fill="white"/>
<path d="M112.426 82.479L96.7626 12.3822H105.936L117.013 64.0461L127.571 12.3822H136.484L120.994 82.479H112.426Z" fill="white"/>
<path d="M154.041 83.2578C149.83 83.2578 146.455 82.4213 143.916 80.7482C141.378 79.0751 139.532 76.7097 138.378 73.652C137.282 70.5366 136.734 66.9019 136.734 62.748C136.734 60.3826 136.936 58.3057 137.339 56.5172C137.743 54.7287 138.32 53.171 139.07 51.8441C139.878 50.4595 140.801 49.2768 141.839 48.296C142.936 47.2575 144.118 46.3344 145.388 45.5267C143.08 43.969 141.205 41.9498 139.762 39.469C138.32 36.9305 137.599 33.7285 137.599 29.8631C137.599 26.1708 138.176 22.9688 139.33 20.2573C140.484 17.5457 142.272 15.4688 144.695 14.0264C147.176 12.5264 150.291 11.7764 154.041 11.7764C157.791 11.7764 160.849 12.5264 163.215 14.0264C165.638 15.4688 167.426 17.5457 168.58 20.2573C169.734 22.9688 170.311 26.1708 170.311 29.8631C170.311 33.7862 169.59 36.9882 168.147 39.469C166.763 41.9498 164.888 43.969 162.522 45.5267C163.792 46.3344 164.945 47.2575 165.984 48.296C167.08 49.2768 168.003 50.4595 168.753 51.8441C169.561 53.171 170.167 54.7287 170.57 56.5172C171.032 58.3057 171.263 60.3826 171.263 62.748C171.263 66.9019 170.686 70.5366 169.532 73.652C168.436 76.7097 166.618 79.0751 164.08 80.7482C161.599 82.4213 158.253 83.2578 154.041 83.2578ZM154.041 75.902C156.291 75.902 158.022 75.3251 159.234 74.1712C160.445 73.0173 161.253 71.4596 161.657 69.4981C162.118 67.5365 162.349 65.3442 162.349 62.9211C162.349 60.7288 162.09 58.6807 161.57 56.7768C161.109 54.8153 160.272 53.2287 159.061 52.0172C157.849 50.7479 156.176 50.1133 154.041 50.1133C151.907 50.1133 150.205 50.7191 148.936 51.9306C147.724 53.1422 146.859 54.7287 146.339 56.6903C145.82 58.5941 145.561 60.6711 145.561 62.9211C145.561 65.3442 145.791 67.5365 146.253 69.4981C146.714 71.4596 147.551 73.0173 148.763 74.1712C150.032 75.3251 151.791 75.902 154.041 75.902ZM154.041 41.2863C156.003 41.2286 157.474 40.6228 158.455 39.469C159.493 38.3151 160.215 36.844 160.618 35.0555C161.022 33.2093 161.224 31.3054 161.224 29.3439C161.224 26.4592 160.705 24.0073 159.666 21.9881C158.628 19.9688 156.753 18.9592 154.041 18.9592C151.33 18.9592 149.426 19.9688 148.33 21.9881C147.234 24.0073 146.686 26.4592 146.686 29.3439C146.686 31.3054 146.888 33.2093 147.291 35.0555C147.695 36.844 148.416 38.3151 149.455 39.469C150.551 40.6228 152.08 41.2286 154.041 41.2863Z" fill="#1C4EFF"/>
<rect x="175" width="6.00001" height="175" transform="rotate(90 175 0)" fill="white"/>
<rect x="175" y="89" width="6.00001" height="175" transform="rotate(90 175 89)" fill="white"/>
</svg>
